<?xml version="1.0" encoding="utf-8"?>
<!-- Generator: Adobe Illustrator 15.1.0, SVG Export Plug-In . SVG Version: 6.00 Build 0)  -->
<!DOCTYPE svg PUBLIC "-//W3C//DTD SVG 1.1//EN" "http://www.w3.org/Graphics/SVG/1.1/DTD/svg11.dtd">
<svg version="1.1" id="Icons" xmlns="http://www.w3.org/2000/svg" xmlns:xlink="http://www.w3.org/1999/xlink" x="0px" y="0px"
	 width="100px" height="100px" viewBox="0 0 100 100" enable-background="new 0 0 100 100" xml:space="preserve">
<path id="Tumblr" fill="#FFFFFF" d="M57.896,78.559c-1.513-0.889-2.901-2.416-3.455-3.89c-0.561-1.483-0.489-4.489-0.489-9.713
	V41.878h20.987V25.815H53.953V5H41.04c-0.576,4.636-1.637,8.466-3.176,11.47c-1.542,3.008-3.576,5.578-6.126,7.726
	C29.2,26.34,25.064,27.992,21.5,29.132v12.746h12.329v31.562c0,4.121,0.437,7.265,1.306,9.429c0.873,2.162,2.432,4.211,4.684,6.139
	c2.252,1.907,4.971,3.396,8.161,4.441C51.166,94.482,53.616,95,57.766,95c3.65,0,7.049-0.368,10.2-1.088
	c3.147-0.738,6.661-2.01,10.534-3.812V75.9c-4.545,2.965-9.116,4.44-13.713,4.44C62.2,80.342,59.913,79.747,57.896,78.559z"/>
</svg>
